<?xml version="1.0" encoding="UTF-8" standalone="no"?>
<!-- Created with Inkscape (http://www.inkscape.org/) -->

<svg
   xmlns:dc="http://purl.org/dc/elements/1.1/"
   xmlns:cc="http://creativecommons.org/ns#"
   xmlns:rdf="http://www.w3.org/1999/02/22-rdf-syntax-ns#"
   xmlns:svg="http://www.w3.org/2000/svg"
   xmlns="http://www.w3.org/2000/svg"
   xmlns:sodipodi="http://sodipodi.sourceforge.net/DTD/sodipodi-0.dtd"
   xmlns:inkscape="http://www.inkscape.org/namespaces/inkscape"
   version="1.1"
   id="svg2"
   xml:space="preserve"
   width="345.33334"
   height="170.66667"
   viewBox="0 0 345.33334 170.66667"
   sodipodi:docname="logo-chu-ste-justine.svg"
   inkscape:version="0.92.3 (2405546, 2018-03-11)"><metadata
     id="metadata8"><rdf:RDF><cc:Work
         rdf:about=""><dc:format>image/svg+xml</dc:format><dc:type
           rdf:resource="http://purl.org/dc/dcmitype/StillImage" /><dc:title></dc:title></cc:Work></rdf:RDF></metadata><defs
     id="defs6" /><sodipodi:namedview
     pagecolor="#ffffff"
     bordercolor="#666666"
     borderopacity="1"
     objecttolerance="10"
     gridtolerance="10"
     guidetolerance="10"
     inkscape:pageopacity="0"
     inkscape:pageshadow="2"
     inkscape:window-width="2461"
     inkscape:window-height="1382"
     id="namedview4"
     showgrid="false"
     inkscape:zoom="3.4864864"
     inkscape:cx="80.858292"
     inkscape:cy="75.496746"
     inkscape:window-x="0"
     inkscape:window-y="0"
     inkscape:window-maximized="0"
     inkscape:current-layer="g10" /><g
     id="g10"
     inkscape:groupmode="layer"
     inkscape:label="ink_ext_XXXXXX"
     transform="matrix(1.3333333,0,0,-1.3333333,0,170.66667)"><g
       id="g12"
       transform="scale(0.1)"><path
         d="M 2433.27,208.805 V 150.84 l 0.14,-2.172 -2.22,0.156 h -28.13 l -2.21,-0.156 0.12,2.172 v 52.871 c 0,15.445 -8.87,22.793 -19.84,22.793 -10.9,0 -19.75,-7.356 -19.75,-22.793 V 150.84 l 0.1,-2.172 -2.23,0.156 h -28.11 l -2.23,-0.156 0.14,2.172 v 52.871 c 0,28.785 23.33,52.098 52.08,52.098 12.28,0 23.51,-4.239 32.41,-11.301 l 0.64,-1.93 0.62,1.879 c 0.92,1 1.84,1.957 2.83,2.84 l 1.91,0.449 -1.77,0.801 c -7.68,8.598 -12.43,19.898 -12.43,32.289 l 0.01,115.644 -0.1,2.196 2.21,-0.102 h 28.11 l 2.21,0.102 -0.08,-2.196 V 280.836 c 0,-12.535 7.18,-18.5 16.09,-18.5 8.88,0 16.11,5.965 16.11,18.5 V 396.48 l -0.13,2.196 2.23,-0.102 h 28.13 l 2.21,0.102 -0.16,-2.196 V 280.836 c 0,-12.391 -4.7,-23.695 -12.38,-32.289 l -1.77,-0.801 1.93,-0.449 c 0.98,-0.883 1.9,-1.84 2.83,-2.84 l 0.62,-1.879 0.61,1.93 c 8.94,7.062 20.17,11.301 32.39,11.301 28.8,0 52.11,-23.313 52.11,-52.098 V 150.84 l 0.16,-2.172 -2.24,0.156 h -28.13 l -2.22,-0.156 0.13,2.172 v 52.871 c 0,15.445 -8.87,22.793 -19.81,22.793 -10.94,0 -19.81,-7.356 -19.81,-22.793 V 150.84 l 0.13,-2.172 -2.22,0.156 h -28.13 l -2.21,-0.156 0.17,2.172 v 57.965 c 0,15.992 -9.23,23.617 -20.55,23.617 -11.32,0 -20.52,-7.637 -20.52,-23.617"
         style="fill:#231f20;fill-opacity:1;fill-rule:evenodd;stroke:none"
         id="path14"
         inkscape:connector-curvature="0" /><path
         d="m 1799.48,6.11328 h 29.77 v 3.16797 l -11.04,2.57815 V 113.148 h -30.58 v -3.5 l 11.85,-3.304 V 72.1797 c -5.21,4.3594 -13.05,7.9258 -23.51,7.9258 -18.57,0 -32.27,-16.3125 -32.27,-38.9883 0,-23.168 12.53,-36.64845 32.41,-36.64845 9.71,0 17.75,3.76563 23.37,8.85545 z m 0,13.78512 v 0 c -4.13,-3.2656 -9.21,-6.0546 -16.93,-6.0546 -10.19,0 -18.92,7.3828 -18.92,27.4726 0,20.6484 7.16,30.2109 18.77,30.2109 7.81,0 13.32,-2.7773 17.08,-7.0039 v -44.625"
         style="fill:#231f20;fill-opacity:1;fill-rule:evenodd;stroke:none"
         id="path16"
         inkscape:connector-curvature="0" /><path
         d="m 2079.27,113.148 v -3.285 l -11.14,-2.992 V 12.332 l 11.14,-2.89841 V 6.11328 h -46.45 v 3.44141 l 14.9,2.77731 V 87.6563 L 2012.99,6.11328 h -8.09 L 1970.83,87.9883 V 12.332 l 14.31,-2.41012 v -3.8086 h -33.59 v 3.32031 l 9.53,2.74221 v 94.8712 l -9.53,2.816 v 3.285 h 29.91 l 33.27,-81.9175 34.17,81.9175 h 30.37"
         style="fill:#231f20;fill-opacity:1;fill-rule:evenodd;stroke:none"
         id="path18"
         inkscape:connector-curvature="0" /><path
         d="m 2125.99,80.1055 c -21.06,0 -40,-14.6602 -40,-37.8321 0.01,-22.4921 19.1,-37.80465 40,-37.80465 21.02,0 40.09,15.31255 40.09,37.80465 0,23.1719 -19.07,37.8321 -40.09,37.8321 z m 0,-5.3008 v 0 c 12.81,0 19.55,-14.3047 19.55,-32.3906 0,-17.8907 -6.74,-32.71879 -19.55,-32.71879 -12.68,0 -19.59,14.82809 -19.59,32.71879 0,17.914 6.91,32.3906 19.59,32.3906"
         style="fill:#231f20;fill-opacity:1;fill-rule:evenodd;stroke:none"
         id="path20"
         inkscape:connector-curvature="0" /><path
         d="M 2513.06,57.7461 V 45.3789 l -16.63,-0.8086 c -16.07,-0.4765 -26.08,-9.1953 -26.08,-21.2187 0,-12.1016 9.03,-18.88285 21.03,-18.88285 9.84,0 16.91,4.8125 21.68,8.19145 V 6.11328 h 27.26 v 3.16797 l -8.88,2.57815 v 48.9922 c 0,10.6757 -7.02,19.2382 -22.97,19.2382 -16.29,0 -26.48,-4.6328 -32.24,-7.0859 V 56.0703 h 8.13 l 2.71,14.0977 c 1.86,0.7812 6.92,2.5547 14.96,1.8789 9.71,-0.8086 10.86,-7.5664 11.03,-14.3008 z m 0,-39.625 v 0 c -3.8,-2.4922 -7.06,-4.9492 -13.01,-4.9492 -9.52,-0.1563 -12.16,5.7422 -12.16,12.6719 0.01,7.0625 4.78,11.832 13.51,13.2929 l 11.66,1.3125 V 18.1211"
         style="fill:#231f20;fill-opacity:1;fill-rule:evenodd;stroke:none"
         id="path22"
         inkscape:connector-curvature="0" /><path
         d="M 2589.46,9.28125 V 6.11328 h -40.71 v 3.16797 l 11.04,2.57815 V 106.84 l -11.04,2.84 v 3.468 h 29.77 V 11.8594 l 10.94,-2.57815"
         style="fill:#231f20;fill-opacity:1;fill-rule:evenodd;stroke:none"
         id="path24"
         inkscape:connector-curvature="0" /><path
         d="m 1647.09,249.266 -15.96,3.14 v 3.403 h 37.03 v -3.235 l -11.37,-3.308 v -64.754 c 0,-26.914 -14.67,-37.848 -44.72,-37.848 -30.84,0 -43.34,11.797 -43.34,36.152 v 66.938 l -11.02,2.82 v 3.235 h 47.33 v -3.586 l -16.1,-2.801 v -65.563 c 0,-19.867 6.77,-29.644 27.45,-29.644 22.41,0 30.69,10.14 30.69,31.41 l 0.01,63.641"
         style="fill:#231f20;fill-opacity:1;fill-rule:evenodd;stroke:none"
         id="path26"
         inkscape:connector-curvature="0" /><path
         d="m 1710.79,151.918 v -3.094 h -39.95 v 3.094 l 10.83,2.629 v 61.191 l -9.84,2.793 v 3.426 h 28.62 v -11.168 c 3.26,2.766 13.64,11.984 26.93,11.984 13.83,0 20.89,-7.699 20.89,-21.195 V 154.73 l 10.51,-2.671 v -3.235 h -38.76 v 3.235 l 9.68,2.488 v 44.891 c 0,7.089 -2.16,13.324 -11,13.324 -7.91,0 -15.98,-5.574 -18.25,-7.086 v -51.129 l 10.34,-2.629"
         style="fill:#231f20;fill-opacity:1;fill-rule:evenodd;stroke:none"
         id="path28"
         inkscape:connector-curvature="0" /><path
         d="m 1795.06,154.547 10.85,-2.629 v -3.094 h -40.62 v 3.094 l 11.04,2.629 v 61.191 l -9.87,2.793 v 3.426 h 28.6 v -67.41"
         style="fill:#231f20;fill-opacity:1;fill-rule:evenodd;stroke:none"
         id="path30"
         inkscape:connector-curvature="0" /><path
         d="m 1796.05,247.094 c 0,-5.586 -4.91,-10.172 -10.83,-10.172 -5.76,0 -10.87,4.586 -10.87,10.172 0,5.625 5.11,10.379 10.87,10.379 5.92,0 10.83,-4.754 10.83,-10.379"
         style="fill:#231f20;fill-opacity:1;fill-rule:evenodd;stroke:none"
         id="path32"
         inkscape:connector-curvature="0" /><path
         d="m 2117.99,154.547 10.87,-2.629 v -3.094 h -40.63 v 3.094 l 11.02,2.629 v 61.191 l -9.86,2.793 v 3.426 h 28.6 v -67.41"
         style="fill:#231f20;fill-opacity:1;fill-rule:evenodd;stroke:none"
         id="path34"
         inkscape:connector-curvature="0" /><path
         d="m 2118.95,247.094 c 0,-5.586 -4.93,-10.172 -10.83,-10.172 -5.77,0 -10.87,4.586 -10.87,10.172 0,5.625 5.1,10.379 10.87,10.379 5.9,0 10.83,-4.754 10.83,-10.379"
         style="fill:#231f20;fill-opacity:1;fill-rule:evenodd;stroke:none"
         id="path36"
         inkscape:connector-curvature="0" /><path
         d="m 1811.85,216.863 -5.28,2.121 v 2.973 h 35.55 v -2.973 l -11.37,-2.816 16.32,-44.527 16.14,44.898 -9.84,2.445 v 2.973 h 24.32 v -2.973 l -5.93,-2.816 -27.84,-68.547 h -6.04 l -26.03,69.242"
         style="fill:#231f20;fill-opacity:1;fill-rule:evenodd;stroke:none"
         id="path38"
         inkscape:connector-curvature="0" /><path
         d="m 1899.36,189.887 h 48.33 c -0.5,20.207 -11.01,32.886 -32.23,32.886 -20.89,0 -36.31,-18.05 -36.31,-37.8 0,-22.84 14.92,-37.793 36.48,-37.793 18.42,0 27.94,7.215 33.53,11.328 l -3.13,4.93 c -4.26,-2.633 -12.85,-8.422 -26.95,-7.563 -14.11,0.992 -21.22,15.766 -19.72,34.012 z m 29.9,5.773 v 0 h -29.08 c 1.64,12.52 6.58,21.711 15.28,21.711 9.88,0 13.15,-11.504 13.8,-21.711"
         style="fill:#231f20;fill-opacity:1;fill-rule:evenodd;stroke:none"
         id="path40"
         inkscape:connector-curvature="0" /><path
         d="m 2073.49,218.992 -1.63,-17.929 h -6.72 l -1.64,12.187 c -2.47,1.313 -5.77,4.121 -12.98,4.121 -5.95,0 -10.52,-3.129 -10.52,-9.512 0,-7.609 8.36,-10.558 16.75,-14.351 8.07,-3.414 21.21,-8.375 21.21,-21.344 0,-14.773 -12.16,-24.984 -26.76,-24.984 -13.53,0 -21.4,3.109 -23.73,3.945 l -1.27,19.855 6.89,0.661 3.93,-13.489 c 2,-1.449 7.42,-5.726 13.99,-5.582 9.37,0.008 13.81,4.946 13.81,12.032 0,8.355 -11.69,11.972 -19.39,15.597 -7.23,3.481 -18.43,6.571 -18.43,21.535 0,12.297 10.21,21.039 24.01,21.039 11.85,0 19.21,-2.773 22.48,-3.781"
         style="fill:#231f20;fill-opacity:1;fill-rule:evenodd;stroke:none"
         id="path42"
         inkscape:connector-curvature="0" /><path
         d="m 2253.41,246.137 -7.1,10.488 -25.13,-19.734 4.1,-5.879 28.13,15.125"
         style="fill:#231f20;fill-opacity:1;fill-rule:evenodd;stroke:none"
         id="path44"
         inkscape:connector-curvature="0" /><path
         d="M 2209.66,189.887 H 2258 c -0.51,20.207 -11.01,32.886 -32.23,32.886 -20.87,0 -36.33,-18.05 -36.33,-37.8 0,-22.84 14.96,-37.793 36.52,-37.793 18.4,0 27.95,7.215 33.53,11.328 l -3.15,4.93 c -4.27,-2.633 -12.8,-8.422 -26.97,-7.563 -14.12,0.992 -21.17,15.766 -19.71,34.012 z m 29.93,5.773 v 0 h -29.11 c 1.65,12.52 6.6,21.711 15.29,21.711 9.86,0 13.15,-11.504 13.82,-21.711"
         style="fill:#231f20;fill-opacity:1;fill-rule:evenodd;stroke:none"
         id="path46"
         inkscape:connector-curvature="0" /><path
         d="m 2009.54,222.652 c -10.52,0 -18.1,-8.449 -22.37,-17.929 h -0.33 v 17.234 h -29.79 v -3.047 l 11.04,-3.172 v -61.191 l -11.04,-2.629 v -3.094 h 45.73 v 3.602 l -15.94,2.59 v 41.593 c 4.35,9.559 10.77,13.43 14.85,13.43 3.1,0 4.24,-0.586 6.63,-2.621 0.85,-0.695 3.99,-1.594 5.89,-0.734 3.56,1.496 4.54,4.148 4.54,7.968 0,4.25 -4.09,8 -9.21,8"
         style="fill:#231f20;fill-opacity:1;fill-rule:evenodd;stroke:none"
         id="path48"
         inkscape:connector-curvature="0" /><path
         d="M 2213.45,9.28125 V 6.11328 h -39.98 v 3.16797 l 10.84,2.57815 v 61.1367 l -9.85,2.832 v 3.4024 h 28.63 v -11.168 c 3.27,2.8281 13.62,12.043 26.91,12.043 13.84,0 20.89,-7.7461 20.89,-21.2422 v -46.836 l 10.52,-2.59371 V 6.11328 h -38.79 v 3.32031 l 9.7,2.42581 V 56.75 c 0,7.0742 -2.13,13.3047 -11.02,13.3047 -7.85,0 -15.95,-5.5742 -18.21,-7.0703 v -51.125 l 10.36,-2.57815"
         style="fill:#231f20;fill-opacity:1;fill-rule:evenodd;stroke:none"
         id="path50"
         inkscape:connector-curvature="0" /><path
         d="m 2377.55,79.9648 c -10.56,0 -18.13,-8.4414 -22.41,-17.9843 h -0.34 v 17.25 h -29.74 v -3.0039 l 11.03,-3.2227 V 11.8594 L 2325.06,9.28125 V 6.11328 h 45.69 V 9.69531 L 2354.8,12.332 v 41.5391 c 4.37,9.6016 10.83,13.5039 14.91,13.5039 3.08,0 4.2,-0.6094 6.58,-2.6914 0.89,-0.6758 4.01,-1.5859 5.87,-0.6914 3.57,1.543 4.57,4.1133 4.57,8.0039 0,4.2031 -4.07,7.9687 -9.18,7.9687"
         style="fill:#231f20;fill-opacity:1;fill-rule:evenodd;stroke:none"
         id="path52"
         inkscape:connector-curvature="0" /><path
         d="m 2183.7,156.988 c -2.7,-1.816 -5.54,-3.125 -9.71,-3.125 -6.6,0 -8.71,4.77 -8.71,15.617 v 46.067 l 18.74,2.762 v 3.648 h -18.74 v 33.852 h -6.15 c -1.21,-19.368 -8.06,-32.098 -25.38,-33.852 h -2.85 v -3.648 l 15.63,-2.762 v -47.043 c 0,-14.91 3.61,-21.324 17.6,-21.324 10.06,0 18.15,3.769 21.43,6.879 l -1.86,2.929"
         style="fill:#231f20;fill-opacity:1;fill-rule:evenodd;stroke:none"
         id="path54"
         inkscape:connector-curvature="0" /><path
         d="m 2316.49,14.2852 c -2.75,-1.7969 -5.56,-3.1524 -9.69,-3.1524 -6.63,0 -8.73,4.8086 -8.73,15.6445 v 46.0782 l 18.74,2.7734 v 3.6016 h -18.74 v 33.9175 h -6.12 c -1.25,-19.4136 -8.09,-32.1402 -25.39,-33.9175 h -2.86 v -3.6016 l 15.6,-2.7734 V 25.8008 c 0,-14.957 3.62,-21.33205 17.61,-21.33205 10.06,0 18.12,3.76563 21.43,6.90235 l -1.85,2.9141"
         style="fill:#231f20;fill-opacity:1;fill-rule:evenodd;stroke:none"
         id="path56"
         inkscape:connector-curvature="0" /><path
         d="m 1854.91,47.1836 h 48.36 c -0.5,20.2383 -11.03,32.9219 -32.26,32.9219 -20.83,0 -36.3,-18.125 -36.3,-37.8321 0,-22.8632 14.95,-37.80465 36.48,-37.80465 18.43,0 27.94,7.23435 33.53,11.33205 l -3.12,4.9414 c -4.28,-2.6211 -12.82,-8.4102 -26.96,-7.5703 -14.12,0.9883 -21.19,15.7539 -19.73,34.0117 z m 29.94,5.7617 v 0 h -29.1 c 1.63,12.5 6.58,21.7344 15.26,21.7344 9.9,0.0039 13.18,-11.5313 13.84,-21.7344"
         style="fill:#231f20;fill-opacity:1;fill-rule:evenodd;stroke:none"
         id="path58"
         inkscape:connector-curvature="0" /><path
         d="m 2408.66,47.1953 h 48.33 c -0.47,20.2266 -11.03,32.8945 -32.19,32.8945 -20.89,0 -36.35,-18.1093 -36.35,-37.8164 0,-22.8632 14.93,-37.80465 36.48,-37.80465 18.43,0 27.93,7.23435 33.57,11.33205 l -3.17,4.9414 c -4.27,-2.6211 -12.81,-8.4102 -26.93,-7.5703 -14.15,0.9883 -21.21,15.7851 -19.74,34.0234 z m 43.73,56.2227 v 0 l -7.07,10.543 -25.15,-19.7383 4.14,-5.9141 z m -13.8,-50.4727 v 0 h -29.08 c 1.63,12.5 6.54,21.7344 15.29,21.7344 9.84,0.0039 13.13,-11.5313 13.79,-21.7344"
         style="fill:#231f20;fill-opacity:1;fill-rule:evenodd;stroke:none"
         id="path60"
         inkscape:connector-curvature="0" /><path
         d="m 580.992,637.176 v 89.121 h 12.051 v -78.438 h 33.129 v -10.683 h -45.18"
         style="fill:#2c73c3;fill-opacity:1;fill-rule:evenodd;stroke:none"
         id="path62"
         inkscape:connector-curvature="0" /><path
         d="m 663.906,693.035 c -8.926,0 -14.476,-7.847 -14.476,-17.043 h 28.398 c 0,8.25 -4.59,17.035 -13.922,17.043 z M 649.57,666.656 v 0 c 0,-11.355 7.297,-20.695 20.149,-20.695 5.547,0 11.23,1.898 15.558,4.465 l 3.379,-7.985 c -5.539,-4.187 -13.801,-6.617 -21.234,-6.617 -20.824,0 -30.426,16.367 -30.426,34.215 0,18.387 10.68,32.734 27.047,32.734 16.773,0 26.512,-13.125 26.512,-33.007 0,-0.809 0,-1.883 0,-3.11 H 649.57"
         style="fill:#2c73c3;fill-opacity:1;fill-rule:evenodd;stroke:none"
         id="path64"
         inkscape:connector-curvature="0" /><path
         d="m 772.508,635.824 c -20.02,0 -30.297,15.149 -30.297,32.735 0,18.246 11.504,34.214 32.191,34.214 6.766,0 12.715,-1.894 16.903,-4.199 l -0.133,-10.679 c -4.188,2.828 -9.606,4.863 -16.496,4.863 -12.582,0 -20.43,-10 -20.43,-23.524 0,-13.125 7.313,-23.41 20.289,-23.41 6.633,0.004 11.492,2.168 15.688,4.742 l 3.386,-8.261 c -4.871,-3.239 -12.586,-6.481 -21.101,-6.481"
         style="fill:#2c73c3;fill-opacity:1;fill-rule:evenodd;stroke:none"
         id="path66"
         inkscape:connector-curvature="0" /><path
         d="m 831.203,693.035 c -8.922,0 -14.469,-7.847 -14.469,-17.043 h 28.407 c 0,8.25 -4.602,17.035 -13.938,17.043 z m -14.332,-26.379 v 0 c 0,-11.355 7.305,-20.695 20.149,-20.695 5.546,0 11.226,1.898 15.554,4.465 l 3.379,-7.985 c -5.539,-4.187 -13.789,-6.617 -21.23,-6.617 -20.825,0 -30.426,16.367 -30.426,34.215 0,18.387 10.68,32.734 27.039,32.734 16.777,0 26.512,-13.125 26.512,-33.007 0,-0.809 0,-1.883 0,-3.11 h -40.977"
         style="fill:#2c73c3;fill-opacity:1;fill-rule:evenodd;stroke:none"
         id="path68"
         inkscape:connector-curvature="0" /><path
         d="m 916.551,637.176 v 38.816 c 0,7.438 -1.215,15.821 -10.551,15.821 -7.035,0 -13.656,-4.594 -18.664,-8.922 v -45.715 h -11.898 v 63.98 h 10 l 1.484,-7.312 c 7.308,5.41 13.808,8.929 22.738,8.929 9.324,0 18.918,-6.359 18.918,-22.73 v -42.867 h -12.027"
         style="fill:#2c73c3;fill-opacity:1;fill-rule:evenodd;stroke:none"
         id="path70"
         inkscape:connector-curvature="0" /><path
         d="m 968.477,635.824 c -10.012,0 -14.469,5.668 -14.469,14.067 v 41.644 h -10.684 v 9.621 h 10.684 v 14.324 l 12.031,3.793 v -18.117 h 19.75 l -3.914,-9.621 h -15.836 v -37.59 c 0,-5.277 2.031,-7.711 6.227,-7.711 4.328,0 8.519,2.301 11.093,4.192 l 3.516,-8.121 c -5.402,-3.914 -12.445,-6.481 -18.398,-6.481"
         style="fill:#2c73c3;fill-opacity:1;fill-rule:evenodd;stroke:none"
         id="path72"
         inkscape:connector-curvature="0" /><path
         d="m 1033.54,689.516 c -1.77,0.945 -4.07,1.484 -6.64,1.484 -3.78,0 -9.33,-2.84 -13.39,-7.035 v -46.789 h -12.03 v 63.98 h 10.01 l 1.49,-7.179 c 7.98,7.308 12.98,8.796 17.98,8.796 2.98,0 5.69,-1.078 7.31,-2.164 l -4.73,-11.093"
         style="fill:#2c73c3;fill-opacity:1;fill-rule:evenodd;stroke:none"
         id="path74"
         inkscape:connector-curvature="0" /><path
         d="m 1072.36,693.035 c -8.93,0 -14.48,-7.847 -14.48,-17.043 h 28.41 c 0,8.25 -4.61,17.035 -13.93,17.043 z m -14.34,-26.379 v 0 c 0,-11.355 7.3,-20.695 20.15,-20.695 5.55,0 11.23,1.898 15.54,4.465 l 3.39,-7.985 c -5.53,-4.187 -13.79,-6.617 -21.23,-6.617 -20.82,0 -30.42,16.367 -30.42,34.215 0,18.387 10.68,32.734 27.04,32.734 16.77,0 26.51,-13.125 26.51,-33.007 0,-0.809 0,-1.883 0,-3.11 h -40.98"
         style="fill:#2c73c3;fill-opacity:1;fill-rule:evenodd;stroke:none"
         id="path76"
         inkscape:connector-curvature="0" /><path
         d="m 1194.89,637.176 v 38.945 c 0,7.715 -1.35,15.692 -10.82,15.692 -7.03,0 -13.39,-4.731 -18.26,-8.922 v -45.715 h -11.9 v 95.758 h 11.9 v -39.09 c 6.77,5.14 13.26,8.929 22.04,8.929 9.34,0 19.07,-5.55 19.07,-23.543 v -42.054 h -12.03"
         style="fill:#2c73c3;fill-opacity:1;fill-rule:evenodd;stroke:none"
         id="path78"
         inkscape:connector-curvature="0" /><path
         d="m 1236.54,669.367 c 0,-14.207 6.77,-23.676 17.99,-23.676 11.22,0 17.72,9.61 17.72,23.676 0,14.199 -6.5,23.524 -17.99,23.524 -11.5,0 -17.72,-9.461 -17.72,-23.524 z m 39.23,24.742 v 0 c 5.67,-5.949 8.79,-14.605 8.79,-24.875 0,-10.285 -3.25,-19.078 -9.06,-25.027 -5.28,-5.41 -12.59,-8.383 -21.24,-8.383 -8.38,0 -15.42,2.699 -20.69,7.84 -5.95,5.953 -9.19,15.008 -9.19,25.426 0,10.414 3.24,19.07 9.05,25.152 5.28,5.406 12.45,8.531 20.96,8.531 8.8,0 16.11,-3.125 21.38,-8.664"
         style="fill:#2c73c3;fill-opacity:1;fill-rule:evenodd;stroke:none"
         id="path80"
         inkscape:connector-curvature="0" /><path
         d="m 1316.75,635.824 c -9.74,0 -15.96,2.43 -20.57,5.27 l 4.33,9.062 c 3.53,-2.297 9.2,-5.008 16.1,-5.008 7.44,0 12.58,3.258 12.58,8.661 0,14.203 -29.21,9.058 -29.21,31.379 0,9.73 7.43,17.585 22.31,17.585 7.17,0 12.44,-1.488 16.91,-3.394 v -10.274 c -4.73,2.032 -9.74,3.922 -16.5,3.922 -6.22,0.008 -10.96,-2.16 -10.96,-7.297 0,-12.843 29.76,-9.339 29.76,-30.699 0,-13.668 -11.5,-19.207 -24.75,-19.207"
         style="fill:#2c73c3;fill-opacity:1;fill-rule:evenodd;stroke:none"
         id="path82"
         inkscape:connector-curvature="0" /><path
         d="m 1380.31,692.352 c -4.19,0 -7.17,-0.672 -9.88,-1.485 v -42.875 c 3.26,-1.351 5.82,-2.168 9.75,-2.168 12.71,0.004 20.82,9.059 20.82,23.809 0.01,15.687 -9.46,22.719 -20.69,22.719 z m 0.4,-56.528 v 0 c -4.32,0 -7.43,0.809 -10.28,1.891 v -32.602 h -11.89 v 93.328 c 5,1.758 12.57,4.332 22.17,4.332 20.57,0 32.6,-12.578 32.6,-32.734 0,-21.633 -15.55,-34.215 -32.6,-34.215"
         style="fill:#2c73c3;fill-opacity:1;fill-rule:evenodd;stroke:none"
         id="path84"
         inkscape:connector-curvature="0" /><path
         d="m 1432.66,637.176 v 63.98 h 11.9 v -63.98 z m 13.93,84.125 v 0 c 0,-4.332 -3.66,-7.985 -7.98,-7.985 -4.47,0 -7.98,3.516 -7.98,7.985 0,4.183 3.51,7.836 7.98,7.836 4.32,0 7.98,-3.516 7.98,-7.836"
         style="fill:#2c73c3;fill-opacity:1;fill-rule:evenodd;stroke:none"
         id="path86"
         inkscape:connector-curvature="0" /><path
         d="m 1486.62,635.824 c -10.01,0 -14.46,5.668 -14.46,14.067 v 41.644 h -10.7 v 9.621 h 10.7 v 14.324 l 12.03,3.793 v -18.117 h 19.74 l -3.92,-9.621 h -15.82 v -37.59 c 0,-5.277 2.02,-7.711 6.22,-7.711 4.32,0 8.51,2.301 11.09,4.192 l 3.52,-8.121 c -5.41,-3.914 -12.45,-6.481 -18.4,-6.481"
         style="fill:#2c73c3;fill-opacity:1;fill-rule:evenodd;stroke:none"
         id="path88"
         inkscape:connector-curvature="0" /><path
         d="m 1554.93,667.469 -11.64,-0.399 c -10.56,-0.414 -14.88,-3.929 -14.88,-10.414 0,-6.09 3.92,-10.832 11.77,-10.832 7.44,0.004 12.03,3.528 14.74,6.223 z m 3.37,-30.293 v 0 l -2.56,6.078 c -4.07,-3.785 -10.16,-7.43 -19.35,-7.43 -10.82,0 -20.01,7.567 -20.01,19.875 0,12.86 9.32,20.422 26.1,20.961 l 12.45,0.41 c 0,0.809 -0.01,2.032 -0.01,2.434 0.01,9.879 -5.68,13.387 -13.25,13.387 -7.85,0 -13.13,-2.965 -16.78,-5.539 l -4.46,8.105 c 7.98,5.699 15.16,7.316 23.4,7.316 13.39,0 23.13,-5.687 23.13,-22.187 v -21.508 c 0,-15.137 0.39,-19.609 1.36,-21.902 h -10.02"
         style="fill:#2c73c3;fill-opacity:1;fill-rule:evenodd;stroke:none"
         id="path90"
         inkscape:connector-curvature="0" /><path
         d="m 1599.68,635.824 c -8.78,0 -12.3,5.403 -12.3,12.582 v 84.528 h 11.91 v -79.258 c 0,-5.547 1.34,-7.035 4.99,-7.035 0.81,0 2.04,0 3.79,0.543 l 1.49,-8.793 c -3.51,-1.899 -6.49,-2.567 -9.88,-2.567"
         style="fill:#2c73c3;fill-opacity:1;fill-rule:evenodd;stroke:none"
         id="path92"
         inkscape:connector-curvature="0" /><path
         d="m 1625.65,637.176 v 63.98 h 11.91 v -63.98 z m 13.94,84.125 v 0 c 0,-4.332 -3.65,-7.985 -7.99,-7.985 -4.46,0 -7.97,3.516 -7.97,7.985 0,4.183 3.51,7.836 7.97,7.836 4.34,0 7.99,-3.516 7.99,-7.836"
         style="fill:#2c73c3;fill-opacity:1;fill-rule:evenodd;stroke:none"
         id="path94"
         inkscape:connector-curvature="0" /><path
         d="m 1684.09,693.035 c -8.93,0 -14.48,-7.847 -14.48,-17.043 h 28.41 c 0,8.25 -4.61,17.035 -13.93,17.043 z m -14.35,-26.379 v 0 c 0,-11.355 7.31,-20.695 20.15,-20.695 5.56,0 11.24,1.898 15.56,4.465 l 3.39,-7.985 c -5.55,-4.187 -13.81,-6.617 -21.25,-6.617 -20.82,0 -30.41,16.367 -30.41,34.215 0,18.387 10.68,32.734 27.04,32.734 16.78,0 26.5,-13.125 26.5,-33.007 0.01,-0.809 0,-1.883 0,-3.11 h -40.98"
         style="fill:#2c73c3;fill-opacity:1;fill-rule:evenodd;stroke:none"
         id="path96"
         inkscape:connector-curvature="0" /><path
         d="m 1760.37,689.516 c -1.77,0.945 -4.07,1.484 -6.64,1.484 -3.78,0 -9.32,-2.84 -13.39,-7.035 v -46.789 h -12.03 v 63.98 h 10.01 l 1.48,-7.179 c 7.99,7.308 12.99,8.796 17.99,8.796 2.98,0 5.68,-1.078 7.31,-2.164 l -4.73,-11.093"
         style="fill:#2c73c3;fill-opacity:1;fill-rule:evenodd;stroke:none"
         id="path98"
         inkscape:connector-curvature="0" /><path
         d="m 621.844,497.203 -2.571,6.492 c -4.742,-4.05 -11.898,-7.84 -20.429,-7.84 -8.516,0 -20.149,4.454 -20.149,23.258 v 42.071 h 12.035 v -41.125 c 0,-9.735 4.2,-14.2 12.04,-14.2 7.171,0 12.851,4.332 15.562,7.438 v 47.887 h 11.902 v -40.18 c 0,-16.762 0.399,-20.965 1.34,-23.801 h -9.73"
         style="fill:#2c73c3;fill-opacity:1;fill-rule:evenodd;stroke:none"
         id="path100"
         inkscape:connector-curvature="0" /><path
         d="m 693.402,497.203 v 38.817 c 0,7.445 -1.23,15.82 -10.554,15.82 -7.039,0 -13.668,-4.59 -18.672,-8.922 v -45.715 h -11.903 v 63.981 h 10.012 l 1.492,-7.313 c 7.305,5.41 13.789,8.938 22.711,8.938 9.336,0 18.942,-6.368 18.942,-22.735 v -42.871 h -12.028"
         style="fill:#2c73c3;fill-opacity:1;fill-rule:evenodd;stroke:none"
         id="path102"
         inkscape:connector-curvature="0" /><path
         d="m 727.879,497.203 v 63.981 h 11.906 v -63.981 z m 13.934,84.133 v 0 c 0,-4.336 -3.657,-7.988 -7.985,-7.988 -4.469,0 -7.98,3.519 -7.98,7.988 0,4.184 3.511,7.832 7.98,7.832 4.328,0 7.985,-3.52 7.985,-7.832"
         style="fill:#2c73c3;fill-opacity:1;fill-rule:evenodd;stroke:none"
         id="path104"
         inkscape:connector-curvature="0" /><path
         d="m 789.141,496.797 h -9.059 l -25.023,64.387 h 12.308 l 17.453,-48.696 h 0.266 l 19.078,48.696 h 11.625 l -26.648,-64.387"
         style="fill:#2c73c3;fill-opacity:1;fill-rule:evenodd;stroke:none"
         id="path106"
         inkscape:connector-curvature="0" /><path
         d="m 850.961,553.063 c -8.926,0 -14.481,-7.84 -14.481,-17.043 h 28.399 c 0,8.253 -4.59,17.043 -13.918,17.043 z m -14.344,-26.379 v 0 c 0,-11.356 7.301,-20.696 20.153,-20.696 5.543,0.004 11.234,1.899 15.558,4.465 l 3.379,-7.976 c -5.547,-4.188 -13.793,-6.622 -21.234,-6.622 -20.825,0 -30.43,16.368 -30.43,34.215 0,18.391 10.68,32.739 27.051,32.739 16.769,0 26.511,-13.129 26.511,-33.012 0,-0.809 0,-1.887 0,-3.113 h -40.988"
         style="fill:#2c73c3;fill-opacity:1;fill-rule:evenodd;stroke:none"
         id="path108"
         inkscape:connector-curvature="0" /><path
         d="m 927.242,549.543 c -1.769,0.949 -4.066,1.488 -6.629,1.488 -3.797,0 -9.34,-2.843 -13.394,-7.027 l 0.004,-46.801 h -12.039 v 63.981 h 10.011 l 1.485,-7.176 c 7.984,7.312 12.98,8.801 17.984,8.801 2.981,0 5.688,-1.09 7.305,-2.168 l -4.727,-11.098"
         style="fill:#2c73c3;fill-opacity:1;fill-rule:evenodd;stroke:none"
         id="path110"
         inkscape:connector-curvature="0" /><path
         d="m 956.996,495.855 c -9.746,0 -15.969,2.434 -20.562,5.27 l 4.328,9.066 c 3.519,-2.3 9.195,-5.007 16.097,-5.007 7.434,0 12.575,3.254 12.575,8.656 0,14.199 -29.215,9.062 -29.215,31.383 0,9.73 7.441,17.586 22.312,17.586 7.176,0 12.446,-1.489 16.907,-3.395 v -10.273 c -4.735,2.027 -9.731,3.922 -16.504,3.922 -6.215,0 -10.95,-2.165 -10.95,-7.297 0,-12.852 29.758,-9.344 29.758,-30.711 0,-13.66 -11.504,-19.2 -24.746,-19.2"
         style="fill:#2c73c3;fill-opacity:1;fill-rule:evenodd;stroke:none"
         id="path112"
         inkscape:connector-curvature="0" /><path
         d="m 1000.54,497.203 v 63.981 h 11.9 v -63.981 z m 13.93,84.133 v 0 c 0,-4.336 -3.65,-7.988 -7.99,-7.988 -4.46,0 -7.968,3.519 -7.968,7.988 0,4.184 3.508,7.832 7.968,7.832 4.34,0 7.99,-3.52 7.99,-7.832"
         style="fill:#2c73c3;fill-opacity:1;fill-rule:evenodd;stroke:none"
         id="path114"
         inkscape:connector-curvature="0" /><path
         d="m 1054.5,495.855 c -10.01,0 -14.47,5.672 -14.47,14.063 v 41.648 h -10.69 v 9.618 h 10.69 v 14.328 l 12.03,3.789 v -18.117 h 19.75 l -3.91,-9.618 h -15.84 v -37.589 c 0,-5.274 2.03,-7.719 6.23,-7.719 4.32,0 8.52,2.312 11.09,4.195 l 3.51,-8.117 c -5.41,-3.918 -12.44,-6.481 -18.39,-6.481"
         style="fill:#2c73c3;fill-opacity:1;fill-rule:evenodd;stroke:none"
         id="path116"
         inkscape:connector-curvature="0" /><path
         d="m 1122.8,527.496 -11.63,-0.398 c -10.55,-0.414 -14.88,-3.922 -14.88,-10.414 0,-6.082 3.92,-10.825 11.76,-10.825 7.45,0 12.04,3.52 14.75,6.219 z m 3.38,-30.293 v 0 l -2.57,6.09 c -4.06,-3.793 -10.15,-7.438 -19.34,-7.438 -10.82,0 -20.02,7.571 -20.02,19.875 0,12.856 9.34,20.422 26.11,20.958 l 12.44,0.414 c 0,0.808 0,2.035 0,2.429 0,9.879 -5.69,13.391 -13.25,13.391 -7.84,0 -13.13,-2.965 -16.78,-5.539 l -4.46,8.109 c 7.98,5.692 15.15,7.317 23.4,7.317 13.39,0 23.13,-5.692 23.13,-22.188 v -21.508 c 0,-15.144 0.4,-19.613 1.35,-21.91 h -10.01"
         style="fill:#2c73c3;fill-opacity:1;fill-rule:evenodd;stroke:none"
         id="path118"
         inkscape:connector-curvature="0" /><path
         d="m 1157.02,497.203 v 63.981 h 11.9 v -63.981 z m 13.94,84.133 v 0 c 0,-4.336 -3.66,-7.988 -7.99,-7.988 -4.46,0 -7.98,3.519 -7.98,7.988 0,4.184 3.52,7.832 7.98,7.832 4.33,0 7.99,-3.52 7.99,-7.832"
         style="fill:#2c73c3;fill-opacity:1;fill-rule:evenodd;stroke:none"
         id="path120"
         inkscape:connector-curvature="0" /><path
         d="m 1223.83,549.543 c -1.76,0.949 -4.06,1.488 -6.63,1.488 -3.78,0 -9.33,-2.843 -13.39,-7.027 v -46.801 h -12.03 v 63.981 h 10 l 1.49,-7.176 c 7.98,7.312 12.99,8.801 17.99,8.801 2.97,0 5.68,-1.09 7.3,-2.168 l -4.73,-11.098"
         style="fill:#2c73c3;fill-opacity:1;fill-rule:evenodd;stroke:none"
         id="path122"
         inkscape:connector-curvature="0" /><path
         d="m 1262.65,553.063 c -8.92,0 -14.47,-7.84 -14.47,-17.043 h 28.4 c 0,8.253 -4.6,17.043 -13.93,17.043 z m -14.33,-26.379 v 0 c 0,-11.356 7.3,-20.696 20.14,-20.696 5.56,0.004 11.23,1.899 15.56,4.465 l 3.38,-7.976 c -5.54,-4.188 -13.79,-6.622 -21.23,-6.622 -20.83,0 -30.44,16.368 -30.44,34.215 0,18.391 10.7,32.739 27.05,32.739 16.78,0 26.51,-13.129 26.51,-33.012 0,-0.809 0,-1.887 0,-3.113 h -40.97"
         style="fill:#2c73c3;fill-opacity:1;fill-rule:evenodd;stroke:none"
         id="path124"
         inkscape:connector-curvature="0" /><path
         d="m 1425.21,497.203 v 41.121 c 0,7.985 -1.61,13.922 -9.87,13.922 -7.71,0 -13.93,-4.73 -18.66,-8.781 0.14,-0.961 0.14,-2.168 0.14,-3.25 v -43.012 h -12.03 v 40.84 c 0,7.988 -1.77,14.203 -10.02,14.203 -7.7,0 -13.79,-4.73 -18.53,-8.914 v -46.129 h -12.04 v 63.981 h 10.02 l 1.48,-7.454 c 7.97,6.227 15.56,9.079 22.59,9.079 7.85,0 13.65,-4.204 16.09,-10.434 7.17,6.508 15.83,10.434 23.13,10.434 10.14,0 19.75,-5.012 19.75,-20.7 v -44.906 h -12.05"
         style="fill:#2c73c3;fill-opacity:1;fill-rule:evenodd;stroke:none"
         id="path126"
         inkscape:connector-curvature="0" /><path
         d="m 1481.62,553.063 c -8.93,0 -14.48,-7.84 -14.48,-17.043 h 28.41 c 0,8.253 -4.6,17.043 -13.93,17.043 z m 0.13,15.957 v 0 l -16.76,19.878 h 15.28 l 11.76,-19.878 z m -14.46,-42.336 v 0 c 0,-11.356 7.29,-20.696 20.14,-20.696 5.55,0.004 11.23,1.899 15.56,4.465 l 3.39,-7.976 c -5.56,-4.188 -13.81,-6.622 -21.25,-6.622 -20.82,0 -30.43,16.368 -30.43,34.215 0,18.391 10.68,32.739 27.05,32.739 16.77,0 26.51,-13.129 26.51,-33.012 0,-0.809 0,-1.887 0,-3.113 h -40.97"
         style="fill:#2c73c3;fill-opacity:1;fill-rule:evenodd;stroke:none"
         id="path128"
         inkscape:connector-curvature="0" /><path
         d="m 1557.9,549.543 c -1.77,0.949 -4.06,1.488 -6.63,1.488 -3.79,0 -9.34,-2.843 -13.39,-7.027 v -46.801 h -12.03 v 63.981 h 10.01 l 1.48,-7.176 c 7.98,7.312 12.98,8.801 17.98,8.801 2.99,0 5.69,-1.09 7.31,-2.168 l -4.73,-11.098"
         style="fill:#2c73c3;fill-opacity:1;fill-rule:evenodd;stroke:none"
         id="path130"
         inkscape:connector-curvature="0" /><path
         d="m 1596.71,553.063 c -8.93,0 -14.47,-7.84 -14.47,-17.043 h 28.4 c 0,8.253 -4.59,17.043 -13.93,17.043 z m -14.33,-26.379 v 0 c 0,-11.356 7.29,-20.696 20.14,-20.696 5.55,0.004 11.23,1.899 15.56,4.465 l 3.38,-7.976 c -5.55,-4.188 -13.79,-6.622 -21.23,-6.622 -20.83,0 -30.43,16.368 -30.43,34.215 0,18.391 10.68,32.739 27.04,32.739 16.78,0 26.52,-13.129 26.52,-33.012 0,-0.809 0,-1.887 0,-3.113 h -40.98"
         style="fill:#2c73c3;fill-opacity:1;fill-rule:evenodd;stroke:none"
         id="path132"
         inkscape:connector-curvature="0" /><path
         d="m 1639.18,525.609 v 10.137 h 35.57 v -10.137 h -35.57"
         style="fill:#2c73c3;fill-opacity:1;fill-rule:evenodd;stroke:none"
         id="path134"
         inkscape:connector-curvature="0" /><path
         d="m 1717.63,553.063 c -8.93,0 -14.48,-7.84 -14.48,-17.043 h 28.4 c 0,8.253 -4.6,17.043 -13.92,17.043 z m -14.34,-26.379 v 0 c 0,-11.356 7.3,-20.696 20.15,-20.696 5.54,0.004 11.23,1.899 15.56,4.465 l 3.38,-7.976 c -5.55,-4.188 -13.8,-6.622 -21.24,-6.622 -20.82,0 -30.43,16.368 -30.43,34.215 0.01,18.391 10.68,32.739 27.05,32.739 16.78,0 26.51,-13.129 26.51,-33.012 0,-0.809 0,-1.887 0,-3.113 h -40.98"
         style="fill:#2c73c3;fill-opacity:1;fill-rule:evenodd;stroke:none"
         id="path136"
         inkscape:connector-curvature="0" /><path
         d="m 1802.84,497.203 v 38.817 c 0,7.445 -1.22,15.82 -10.55,15.82 -7.04,0 -13.67,-4.59 -18.68,-8.922 v -45.715 h -11.9 v 63.981 h 10.02 l 1.48,-7.313 c 7.31,5.41 13.79,8.938 22.72,8.938 9.34,0 18.94,-6.368 18.94,-22.735 v -42.871 h -12.03"
         style="fill:#2c73c3;fill-opacity:1;fill-rule:evenodd;stroke:none"
         id="path138"
         inkscape:connector-curvature="0" /><path
         d="m 1868.29,581.336 c -2.16,1.074 -4.88,1.75 -7.85,1.75 -5.67,0 -8.25,-3.648 -8.25,-10.285 v -11.617 h 16.78 l -3.79,-9.75 h -12.99 v -54.231 h -12.03 v 54.231 h -8.38 v 9.75 h 8.38 v 10.543 c 0,17.441 11.77,21.234 20.01,21.234 2.98,0 7.18,-0.68 10.55,-2.438 l -2.43,-9.187"
         style="fill:#2c73c3;fill-opacity:1;fill-rule:evenodd;stroke:none"
         id="path140"
         inkscape:connector-curvature="0" /><path
         d="m 1916.16,527.496 -11.62,-0.398 c -10.55,-0.414 -14.88,-3.922 -14.88,-10.414 0,-6.082 3.91,-10.825 11.75,-10.825 7.45,0 12.05,3.52 14.75,6.219 z m 3.39,-30.293 v 0 l -2.57,6.09 c -4.06,-3.793 -10.15,-7.438 -19.35,-7.438 -10.81,0 -20.01,7.571 -20.01,19.875 0,12.856 9.34,20.422 26.1,20.958 l 12.44,0.414 c 0,0.808 0,2.035 0,2.429 0,9.879 -5.68,13.391 -13.25,13.391 -7.84,0 -13.12,-2.965 -16.77,-5.539 l -4.46,8.109 c 7.98,5.692 15.14,7.317 23.39,7.317 13.39,0 23.13,-5.692 23.13,-22.188 v -21.508 c 0,-15.144 0.41,-19.613 1.36,-21.91 h -10.01"
         style="fill:#2c73c3;fill-opacity:1;fill-rule:evenodd;stroke:none"
         id="path142"
         inkscape:connector-curvature="0" /><path
         d="m 1989.74,497.203 v 38.817 c 0,7.445 -1.21,15.82 -10.55,15.82 -7.03,0 -13.66,-4.59 -18.67,-8.922 l 0.01,-45.715 h -11.9 v 63.981 h 10 l 1.49,-7.313 c 7.3,5.41 13.8,8.938 22.72,8.938 9.34,0 18.94,-6.368 18.94,-22.735 v -42.871 h -12.04"
         style="fill:#2c73c3;fill-opacity:1;fill-rule:evenodd;stroke:none"
         id="path144"
         inkscape:connector-curvature="0" /><path
         d="m 2041.68,495.855 c -10.01,0 -14.47,5.672 -14.47,14.063 v 41.648 h -10.69 v 9.618 h 10.69 v 14.328 l 12.03,3.789 V 561.184 H 2059 l -3.92,-9.618 h -15.84 v -37.589 c 0,-5.274 2.03,-7.719 6.23,-7.719 4.33,0 8.52,2.312 11.08,4.195 l 3.52,-8.117 c -5.4,-3.918 -12.44,-6.481 -18.39,-6.481"
         style="fill:#2c73c3;fill-opacity:1;fill-rule:evenodd;stroke:none"
         id="path146"
         inkscape:connector-curvature="0" /><path
         d="m 254.063,773.758 c -2.016,6.324 -0.196,13.992 2.394,19.972 0.148,0.313 3.539,-0.265 4.219,1.719 -0.395,-1.125 0.66,1.02 1.429,0.438 -0.335,0.636 0.524,0.918 0.547,1.429 0.379,0.008 0.727,0 1.098,0 0.047,1.004 -0.273,2.039 0.551,2.914 0.722,0 1.445,0 2.176,0 0.57,0.372 0.824,0.911 1.089,1.461 0.387,0.887 1.914,0.411 2.188,1.45 1.656,3.414 4.312,6.929 8.726,7.73 2.477,1.336 3.5,3.973 5.997,5.324 0.211,1.328 1.156,1.618 2.179,2.399 3.934,-0.141 7.692,-0.024 11.457,0.976 2.223,-0.101 4.492,0 6.004,-0.554 7.324,-2.696 10.571,-5.743 16.625,-6.086 2.594,-0.153 2.352,-3.332 4.836,-4.524 8.145,-3.949 4,-14.23 11.93,-18.738 7.805,-4.422 5.801,-6.395 11.078,-9.59 1.371,-0.816 -0.473,-5.215 0.934,-6.297 6.16,-4.742 6.527,-10.543 5.945,-16.324 -0.375,-3.66 5.301,-6.086 4.273,-9.852 10.922,-13.167 8.391,-30.378 15.575,-43.054 -7.782,-7.731 6.316,-12.063 1.796,-20.207 5,-11.399 3.575,-24.391 9.563,-35.434 -1.274,-21.769 7.519,-42.937 6.019,-66.137 4.754,-6.5 0.321,-10.777 2.149,-17.843 -1.281,-12.504 7.555,-16.633 7.629,-25.907 -1.266,-8.601 10.258,-15.566 7.109,-22.886 -1.519,-3.571 -0.492,-7.016 -1.066,-10.223 -0.715,-0.871 -1.707,-1.25 -2.699,-1.633 -0.075,-1.172 -0.153,-2.351 -0.227,-3.519 1.293,-2.891 2.461,-5.805 2.863,-8.992 -1.004,0.253 -1.961,0.32 -2.636,-0.747 0.503,-2.937 0.734,-5.886 0.296,-8.867 -2.093,-0.078 -4.097,0.289 -5.98,1.184 0.18,-0.863 -0.344,-1.317 -0.973,-1.723 -1.718,0.082 -3.457,0.184 -5.172,0.27 -1.421,0.531 -2.394,1.605 -3.277,2.808 -1.34,0.653 -2.687,1.258 -4.238,1.094 -0.59,-0.266 -1.192,-0.519 -1.785,-0.797 0.046,2.578 -2.168,-0.558 -2.524,1.012 -0.535,0.617 -0.617,1.746 -1.847,2.379 -15.016,7.871 -11.036,23.394 -25.18,32.64 -1.82,16.832 -13.598,30.602 -16.957,46.661 -8.75,28.007 -25.086,56.039 -30.68,86.035 -22.465,31.804 -28.883,69.23 -49.527,100.289 -0.153,0.457 -0.403,1.015 -0.906,1.406 0.269,-0.059 0.414,0.074 0.542,0.238 0.024,2.504 0.079,4.993 -0.265,7.489 -0.34,0.539 -0.676,1.07 -0.539,1.699 -0.176,0.598 -0.922,0.84 -1.098,1.441 0,1.324 0.387,2.571 0,3.879 -0.711,0.723 -1.129,1.574 -1.648,2.406 -0.012,0.356 -0.024,0.696 0.008,1.192"
         style="fill:#2c73c3;fill-opacity:1;fill-rule:evenodd;stroke:none"
         id="path148"
         inkscape:connector-curvature="0" /><path
         d="m 194.898,515.223 c -3.257,-2.266 -2.14,-6.743 -4.437,-9.543 -0.273,-0.344 -0.711,-0.895 -1.215,-1.489 0.102,-1.062 -0.578,-1.82 -1.164,-2.613 -1.84,-0.715 -6.234,-1.664 -6.82,-3.191 -0.922,0.062 -1.852,0.129 -2.785,0.187 -1.598,-0.66 -0.786,-2.691 -2.176,-3.461 -0.516,-0.601 -1.047,-1.074 -1.93,-0.777 -1.371,-1.16 -0.894,-3.176 -2.269,-4.352 -0.102,-1.191 -0.207,-2.367 -0.309,-3.566 -3.145,-0.438 -6.395,0 -9.434,-1.227 0.246,-0.601 0.504,-1.226 0.149,-1.336 -5.235,-1.777 -5.004,6.688 -9.516,2.04 -19.594,25.734 -17.008,54.511 -25.57,83.98 -9.504,53.055 -16.285,107.918 -20.676,161.16 -3.152,27.192 -14.9452,54.887 -9.0624,80.516 5.9024,8.953 7.7734,12.777 15.4884,19.16 3.465,-1.195 5.242,1.644 7.402,2.984 17.75,-1.09 35.457,-2.695 46.457,-16.609 9.778,-15.797 21.012,-32.684 23.352,-51.957 1.758,-8.934 -1.762,-17.02 -0.02,-25.953 -1.347,-15.129 6.09,-28.824 7.469,-41.672 -2.215,-7.699 2.168,-9.926 -1.488,-16.578 8.41,-8.36 4.988,-23.848 5.261,-32.223 1.497,-5.957 0.661,-15.234 -1.808,-19.988 3.187,-10.004 -4.539,-16.402 0.266,-25.504 0.808,-7.914 1.015,-22.648 -3.657,-29.219 -7.738,-10.922 -3.636,-25.347 -0.816,-38.144 0.359,-1.614 2.562,-3.348 2.055,-4.934 -1.332,-4.098 -4.254,-6.633 -3.903,-10.957 l 1.156,-4.734"
         style="fill:#2c73c3;fill-opacity:1;fill-rule:evenodd;stroke:none"
         id="path150"
         inkscape:connector-curvature="0" /><path
         d="m 262.59,970.371 c -4.285,-0.73 -7.094,-6.219 -9.633,-8.305 -2.602,-2.14 -4.492,1.235 -4.461,-2.461 -0.988,0.653 -5.48,-2.234 -5.008,-1.593 -10.574,-13.903 -28.07,-8.336 -41.351,-19.938 -7.313,-2.285 -15.262,-3.707 -20.692,-8.715 -27.031,-4.019 -64.019,0 -93.4411,4.461 -13.2031,8.953 -28.9101,5.797 -40.1016,16.887 -5.3242,-2.633 -7.1718,7.68 -13.3398,6.586 -13.5273,20.992 -34.992188,43.517 -24.66797,71.337 12.02347,42.44 52.12497,72.48 88.71877,98.21 25.8047,17.11 53.2347,28.74 81.0857,39.84 12.317,1.69 27.004,3.54 38.621,0.53 3.309,-9.06 11.336,-17.81 6.153,-27.66 -2.285,-7.82 -12.68,-4.7 -16.227,-13.62 -0.875,-2.18 -1.988,-4.84 -4.683,-4.82 -0.192,-0.32 -0.36,-0.64 -0.532,-0.97 -1.804,-0.23 -3.937,-1.14 -4.176,-2.89 -1.5,-0.23 -3.214,-0.26 -4.156,-1.45 -0.359,0 -0.699,0 -1.043,0 -0.351,-0.32 -0.699,-0.64 -1.043,-0.98 -1.144,0.39 -1.988,-0.86 -3.133,-0.49 -0.699,-0.31 -1.386,-0.62 -2.085,-0.94 -1.145,0.36 -1.989,-0.87 -3.133,-0.5 -2.078,-1.56 -4.231,-3 -6.766,-3.87 -0.738,-1.21 -1.398,-2.48 -2.613,-3.37 -1.082,-0.2 -2.172,-0.41 -3.121,-0.97 -2.211,-3.02 -6.074,-4.56 -7.305,-8.2 -3.269,-2.14 -7.144,-3.07 -9.898,-5.82 -0.352,0 -0.684,0 -1.043,0 -0.93,-1 -1.305,-2.29 -2.086,-3.38 -0.785,-1.19 -2.633,-1.45 -3.153,-2.6 -6.347,-13.97 -22.988,-7.91 -27.043,-23.15 -6.519,-17.33 -32.6402,-22.81 -35.5777,-43.96 -6.8477,-6.73 -16.7969,-17.11 -15.7969,-25.386 23.5586,-18.508 67.9766,-21.985 96.7146,-21.555 5.887,0.098 5.219,-2.488 7.957,-1.414 2.059,0.812 5.196,-1.094 7.199,-0.223 6.938,3.043 14.063,2.446 21.958,0.875 1.535,-0.312 3.55,-1.449 4.378,-0.781 0.809,0.695 3.973,0.625 4.438,0.715 4.203,0.844 5.109,2.394 9.648,1.769 1.7,0.032 1.961,-0.324 3.172,-0.172 2.66,0.305 3.492,1.528 6.047,0.797 3.477,-1.015 6.746,4.192 10.539,4.875 2.699,0.5 8.805,1.02 14.336,1.235 1.699,0.074 3.211,-0.059 4.727,-0.196 0.562,-0.019 0.984,0.407 1.531,0.5 0.715,-0.621 1.277,-1.421 2.031,-2.031 0.551,-1.687 -0.14,-3.465 -0.512,-5.098 -0.464,-0.39 -0.703,-0.992 -1.433,-1.109"
         style="fill:#2c73c3;fill-opacity:1;fill-rule:evenodd;stroke:none"
         id="path152"
         inkscape:connector-curvature="0" /><path
         d="m 410.355,920.184 c 13.504,4.949 21.356,15.129 32.579,23.777 22.464,17.797 36.824,41.391 50.152,63.649 5.457,22.13 16.844,45.38 14.094,70.55 -9.465,8.12 -2.926,22 -12.864,30.14 -12.628,35.16 -41.023,55.75 -78.558,62.71 -2.653,-3.99 -9.07,-4.65 -13.125,-7.22 -11.906,-12.76 9.246,-23.17 16.101,-34.39 20.914,-36.84 37.922,-94.03 4.278,-130.537 -20.934,-27.425 -52.68,-54.418 -84.274,-67.758 -32.222,-14.98 -70.175,-21.925 -112.574,-34.82 -7.016,-2.91 -19.484,3.981 -22.344,-4.578 -0.121,-0.371 -0.211,-0.453 -0.199,-0.625 0.039,-1.066 1.703,-1.027 1.914,-1.937 0.375,-1.684 1.379,-3.11 1.145,-4.821 l 0.386,-0.785 c 2.172,-0.098 4.344,-0.176 6.536,-0.262 -0.422,-1.16 0.289,-1.863 1.195,-2.48 22.258,0.859 29.965,-5.668 52.043,-1.828 19.238,3.34 28.258,4.859 46.195,10.07 2.383,0.695 4.598,1.176 6.762,1.078 0.496,0.692 1.629,0.176 2.066,0.965 4.032,0.106 7.844,1.461 10.953,4.336 1.211,0 6.61,-0.949 7.809,-0.949 2.945,2.172 6.609,2.742 9.898,4.336 2.915,-0.035 5.684,0.758 8.352,2.433 1.051,0 2.082,0 3.133,0 2.68,1.071 5.461,1.871 8.332,2.414 4.113,1.778 8.074,4.227 13.035,3.852 3.957,1.914 4.016,3.879 8.34,4.828 1.039,0.488 2.078,0.981 3.125,1.449 2.605,0 5.215,0 7.816,0 1.969,1.477 3.965,2.891 6.258,3.887 -0.293,0.738 0.824,1.176 0.524,1.934 l 0.917,0.582"
         style="fill:#2c73c3;fill-opacity:1;fill-rule:evenodd;stroke:none"
         id="path154"
         inkscape:connector-curvature="0" /><path
         d="m 380.816,1215.04 c 0.582,4.48 1.446,9.09 4.016,12.97 -4.57,9.55 -0.719,22.14 -9.336,29.41 -8.391,3.8 -4.129,12.46 -29.933,16.17 -16.317,-3.72 -33.571,-10.44 -45.786,-18.18 -1.797,-0.43 -2.687,-3.37 -4.808,-3.37 -0.11,-2.04 -3.621,-1.53 -3.063,-4.08 -1.218,-0.89 -2.551,-1.29 -4.074,-1 0.684,-1.62 -1.758,-2.46 -1.023,-4.09 -1.778,-0.24 -1.493,-2.57 -3.047,-3.05 0,-0.68 0,-1.37 0,-2.05 -1.02,-1.02 -2.047,-2.03 -3.055,-3.05 -1.203,0.21 -2.102,-0.47 -3.062,-1.02 -1.418,-2.43 -4.743,-2.6 -6.11,-5.09 0.598,-1.33 -1.617,-1.73 -1.019,-3.05 -1.696,-1.7 -3.403,-3.4 -5.086,-5.1 -1.207,0.22 -2.11,-0.48 -3.067,-1.01 -3.332,-2.63 -3.269,-7.29 -6.117,-10.19 -0.668,-5.46 1.766,-11.26 -2.027,-16.31 0.269,-5.14 3.254,-9.94 2.027,-15.29 2.117,-2.73 4.035,-5.53 4.09,-9.15 0.031,-2.29 1.016,-3.06 1.016,-4.08 1.695,-2.84 4.941,-3.86 7.132,-6.12 0.676,0 1.352,0 1.153,0.42 4.078,-8.91 18.672,-5.91 32.414,-2.74 6.336,0.94 11.738,5.68 17.449,4.75 l 5.199,5.05 c 1.805,1.42 3.449,1.03 5.125,0.14 l 8.5,2 c 7.567,7.11 23.473,8.05 22.856,21.33 4.289,5.68 12.086,13.21 13.293,22.81 l 6.343,2.97"
         style="fill:#2c73c3;fill-opacity:1;fill-rule:evenodd;stroke:none"
         id="path156"
         inkscape:connector-curvature="0" /><path
         d="m 364.254,1114.66 c 10.851,-13.15 16.687,-14.61 11.789,-28.24 -7.859,-4.55 -3.43,-13.2 -7.859,-18.66 -11.793,-3.65 -4.746,-17.18 -17.524,-17.64 0.508,-5.46 -5.262,-2.35 -10.008,-11.06 -1.961,-7.74 -25.523,-4.56 -27.98,-11.83 -4.918,0.45 -12.762,-0.46 -16.688,-3.2 -4.429,1.36 -11.796,2.27 -12.781,6.37 -10.648,6.15 -15.953,13.22 -19.883,19.6 -1.961,8.64 -2.222,16.84 2.207,26.41 8.34,7.75 15.711,15.94 27.012,19.59 20.137,7.27 37.824,19.12 59.914,21.84 7.715,0.74 6.902,-2.26 11.801,-3.18"
         style="fill:#2c73c3;fill-opacity:1;fill-rule:evenodd;stroke:none"
         id="path158"
         inkscape:connector-curvature="0" /><path
         d="m 697.703,854.387 c -6.918,-25.242 -22.996,-38.469 -42.945,-38.469 -28.281,0 -47.004,26.254 -47.004,65.937 0,36.625 16.277,59.219 42.535,59.219 21.973,0 37.637,-16.484 45.984,-35.207 h 15.055 l -4.066,32.356 c -17.297,8.136 -36.016,12.414 -55.754,12.414 -54.539,0 -82.414,-36.633 -82.414,-74.684 0,-47.207 40.086,-69.633 84.246,-69.633 21.973,0 43.543,5.129 59.617,14.078 v 33.989 h -15.254"
         style="fill:#231f20;fill-opacity:1;fill-rule:nonzero;stroke:none"
         id="path160"
         inkscape:connector-curvature="0" /><path
         d="m 786.992,886.332 v 33.379 c 0,23.754 -0.047,8.906 -0.047,28.078 h -55.707 v -9.566 h 1.832 c 13.836,0 18.114,-5.289 18.114,-17.5 v -86.078 c 0,-9.77 -4.278,-16.075 -17.098,-16.075 h -2.848 v -9.566 h 73.465 v 9.566 c -13.844,0.817 -17.711,5.285 -17.711,19.328 v 36.43 h 57.395 v -37.644 c 0,-23.004 0.008,-8.805 0.008,-27.68 h 54.32 v 9.566 c -14.039,0 -18.52,5.285 -18.52,18.922 v 80.789 c 0,13.02 2.848,19.942 18.52,19.942 v 9.566 h -72.442 v -9.566 c 14.645,0 18.114,-6.508 18.114,-17.293 v -34.598 h -57.395"
         style="fill:#231f20;fill-opacity:1;fill-rule:nonzero;stroke:none"
         id="path162"
         inkscape:connector-curvature="0" /><path
         d="m 932.656,857.227 c 0,-39.676 28.699,-50.907 64.102,-50.907 31.752,0 61.052,10.821 61.052,51.723 v 57.801 c 0,14.644 4.27,19.941 18.51,22.379 v 9.566 h -50.66 v -9.566 c 15.87,-0.61 21.77,-7.938 21.77,-26.45 v -50.679 c 0,-30.93 -22.59,-38.656 -41.52,-38.656 -26.648,0 -37.433,13.628 -37.433,39.675 v 58.817 c 0,23.883 0.027,7.05 0.027,26.859 h -53.957 v -9.566 c 15.469,0 18.109,-7.125 18.109,-18.926 v -62.07"
         style="fill:#231f20;fill-opacity:1;fill-rule:nonzero;stroke:none"
         id="path164"
         inkscape:connector-curvature="0" /><path
         d="m 1252.96,908.223 v 30.523 c -13.63,6.719 -33.98,11.602 -49.25,11.602 -32.14,0 -55.55,-16.891 -55.55,-40.086 0,-10.383 4.48,-18.321 9.98,-23.809 26.04,-26.051 68.98,-24.012 68.98,-52.504 0,-10.785 -9.76,-18.32 -23.41,-18.32 -17.7,0 -34.18,12.211 -37.84,35.207 h -16.28 v -34.391 c 14.45,-6.101 37.44,-10.414 54.54,-10.414 34.18,0 57.99,13.875 57.99,40.735 0,51.074 -80.39,47.007 -80.39,76.722 0,10.172 8.76,17.297 21.58,17.297 17.5,0 32.15,-13.637 35.2,-32.562 h 14.45"
         style="fill:#231f20;fill-opacity:1;fill-rule:nonzero;stroke:none"
         id="path166"
         inkscape:connector-curvature="0" /><path
         d="m 1378.68,830.082 c -6.92,-3.867 -12.61,-3.668 -12.61,5.289 v 42.324 c 0,16.696 -9.77,25.032 -38.67,25.032 -32.15,0 -48.63,-9.153 -48.63,-25.641 0,-4.277 1.02,-8.746 2.85,-13.43 l 27.06,8.551 c -4.88,13.629 3.05,20.961 13.64,20.961 8.95,0 14.44,-5.293 14.44,-13.438 v -15.058 c -22.18,-5.488 -61.46,-11.598 -61.46,-37.238 0,-12.407 11.81,-20.996 29.11,-20.996 12.82,0 21.16,3.5 32.35,13.671 3.66,-9.363 10.18,-13.671 20.36,-13.671 8.74,0 17.49,5.121 23.19,13.671 z m -41.92,0 v 0 c -7.72,-6.105 -13.02,-8.75 -18.11,-8.75 -6.51,0 -11.6,5.902 -11.6,13.43 0,11.191 10.99,15.261 29.71,20.554 v -25.234"
         style="fill:#231f20;fill-opacity:1;fill-rule:nonzero;stroke:none"
         id="path168"
         inkscape:connector-curvature="0" /><path
         d="m 1439.89,902.117 h -10.37 l -35.21,-10.176 v -6.507 l 16.28,-9.567 v -39.472 c 0,-12.418 -4.27,-18.114 -16.28,-18.114 v -9.566 h 60.64 v 9.566 c -12.21,0.61 -15.06,6.715 -15.06,18.512 z m -34.8,30.324 v 0 c 0,-9.57 7.73,-17.503 17.3,-17.503 9.56,0 17.5,7.933 17.5,17.503 0,9.563 -7.94,17.297 -17.5,17.297 -9.57,0 -17.3,-7.734 -17.3,-17.297"
         style="fill:#231f20;fill-opacity:1;fill-rule:nonzero;stroke:none"
         id="path170"
         inkscape:connector-curvature="0" /><path
         d="m 1517.59,877.086 c 5.7,4.074 12.61,7.129 18.92,7.129 9.78,0 14.66,-7.129 14.66,-17.098 V 835.57 c 0,-10.175 -3.26,-15.871 -12.22,-17.289 v -9.566 h 54.74 v 9.566 c -10.78,2.035 -13.22,5.903 -13.22,20.957 v 33.571 c 0,19.945 -11.6,29.918 -29.71,29.918 -12.41,0 -23,-5.899 -33.17,-16.891 v 16.281 h -10.18 l -33.37,-10.781 v -5.5 l 14.25,-10.578 v -40.293 c 0,-10.988 -4.48,-16.285 -14.25,-16.684 v -9.566 h 56.37 v 9.566 c -10.37,1.625 -12.82,7.934 -12.82,17.496 v 41.309"
         style="fill:#231f20;fill-opacity:1;fill-rule:nonzero;stroke:none"
         id="path172"
         inkscape:connector-curvature="0" /><path
         d="m 1645.34,888.281 h 27.68 v 12.008 h -27.68 v 23.602 h -8.95 c -3.25,-9.973 -16.89,-22.582 -33.78,-25.032 v -10.578 h 13.43 v -58.609 c 0,-14.645 10.58,-23.234 25.43,-23.234 12.42,0 24.83,3.5 31.55,8.992 v 11.187 c -5.09,-2.23 -8.34,-3.051 -13.23,-3.051 -12,0 -14.45,4.688 -14.45,15.872 v 48.843"
         style="fill:#231f20;fill-opacity:1;fill-rule:nonzero;stroke:none"
         id="path174"
         inkscape:connector-curvature="0" /><path
         d="m 1770.86,837.813 c -9.97,-7.329 -16.28,-9.973 -24.02,-9.973 -16.68,0 -31.13,14.652 -32.55,32.965 h 64.51 c -0.62,25.847 -17.1,41.922 -43.35,41.922 -29.31,0 -49.25,-20.344 -49.25,-50.258 0,-27.68 17.71,-46.031 44.37,-46.031 19.33,0 35,8.382 48.23,25.472 z m -57.18,32.566 v 0 c 0,13.836 6.92,22.789 17.29,22.789 10.38,0 16.28,-8.145 16.28,-22.789 h -33.57"
         style="fill:#231f20;fill-opacity:1;fill-rule:nonzero;stroke:none"
         id="path176"
         inkscape:connector-curvature="0" /><path
         d="m 1805.82,846.563 h 71.02 v 26.246 h -71.02 v -26.246"
         style="fill:#231f20;fill-opacity:1;fill-rule:nonzero;stroke:none"
         id="path178"
         inkscape:connector-curvature="0" /><path
         d="m 1915.06,795.043 c 0,-11.191 -1.63,-15.461 -6.1,-15.461 -8.35,0 -1.43,14.645 -16.49,14.645 -7.36,0 -13.26,-4.672 -13.26,-10.575 0,-9.16 9.57,-15.875 22.22,-15.875 14.03,0 27.67,6.11 36.42,14.856 9.57,9.562 13.02,24.824 13.02,43.582 v 93.203 c 0,12.816 4.28,18.516 17.51,18.516 v 9.566 h -70.82 v -9.566 c 12.82,0 17.5,-5.286 17.5,-16.481 v -126.41"
         style="fill:#231f20;fill-opacity:1;fill-rule:nonzero;stroke:none"
         id="path180"
         inkscape:connector-curvature="0" /><path
         d="m 2077.61,900.289 -41.31,-1.832 v -9.156 c 7.33,-0.817 12.02,-6.516 12.02,-13.84 V 831.91 c -6.32,-4.476 -12.42,-6.715 -17.72,-6.715 -7.32,0 -15.66,4.887 -15.66,15.875 v 59.219 l -40.91,-1.832 v -9.156 c 8.55,-2.035 11.61,-6.516 11.61,-17.91 v -31.547 c 0,-21.364 9.76,-33.406 30.11,-33.406 12.01,0 20.15,3.906 32.57,15.914 v -15.5 h 8.13 l 35.82,5.324 v 9.558 c -13.02,0 -14.66,2.036 -14.66,18.11 v 60.445"
         style="fill:#231f20;fill-opacity:1;fill-rule:nonzero;stroke:none"
         id="path182"
         inkscape:connector-curvature="0" /><path
         d="m 2182.57,895.809 c -10.78,4.273 -24.21,6.918 -33.98,6.918 -18.11,0 -36.83,-7.528 -36.83,-29.102 0,-34.25 57.79,-29.199 57.79,-45.816 0,-5.496 -5.3,-10.547 -16.48,-10.547 -12.41,0 -23.2,7.289 -31.14,21.301 h -8.96 l 1.64,-23.743 c 15.87,-6.105 26.86,-8.382 38.46,-8.382 23.19,0 37.23,11.23 37.23,29.679 0,36.09 -57.38,31.031 -57.38,47.582 0,5.567 5.9,9.469 14.45,9.469 11.4,0 22.59,-7.598 28.69,-19.738 h 8.76 l -2.25,22.379"
         style="fill:#231f20;fill-opacity:1;fill-rule:nonzero;stroke:none"
         id="path184"
         inkscape:connector-curvature="0" /><path
         d="m 2245.62,888.281 h 27.68 v 12.008 h -27.68 v 23.602 h -8.96 c -3.25,-9.973 -16.89,-22.582 -33.77,-25.032 v -10.578 h 13.43 v -58.609 c 0,-14.645 10.57,-23.234 25.43,-23.234 12.42,0 24.83,3.5 31.55,8.992 v 11.187 c -5.09,-2.23 -8.35,-3.051 -13.23,-3.051 -12.01,0 -14.45,4.688 -14.45,15.872 v 48.843"
         style="fill:#231f20;fill-opacity:1;fill-rule:nonzero;stroke:none"
         id="path186"
         inkscape:connector-curvature="0" /><path
         d="m 2336.54,902.117 h -10.37 l -35.21,-10.176 v -6.507 l 16.28,-9.567 v -39.472 c 0,-12.418 -4.27,-18.114 -16.28,-18.114 v -9.566 h 60.64 v 9.566 c -12.21,0.61 -15.06,6.715 -15.06,18.512 z m -34.79,30.324 v 0 c 0,-9.57 7.73,-17.503 17.3,-17.503 9.56,0 17.49,7.933 17.49,17.503 0,9.563 -7.93,17.297 -17.49,17.297 -9.57,0 -17.3,-7.734 -17.3,-17.297"
         style="fill:#231f20;fill-opacity:1;fill-rule:nonzero;stroke:none"
         id="path188"
         inkscape:connector-curvature="0" /><path
         d="m 2412.2,877.086 c 5.7,4.074 12.62,7.129 18.93,7.129 9.77,0 14.65,-7.129 14.65,-17.098 V 835.57 c 0,-10.175 -3.26,-15.871 -12.21,-17.289 v -9.566 h 54.74 v 9.566 c -10.79,2.035 -13.22,5.903 -13.22,20.957 v 33.571 c 0,19.945 -11.61,29.918 -29.71,29.918 -12.42,0 -23,-5.899 -33.18,-16.891 v 16.281 h -10.17 l -33.37,-10.781 v -5.5 l 14.24,-10.578 v -40.293 c 0,-10.988 -4.47,-16.285 -14.24,-16.684 v -9.566 h 56.37 v 9.566 c -10.38,1.625 -12.83,7.934 -12.83,17.496 v 41.309"
         style="fill:#231f20;fill-opacity:1;fill-rule:nonzero;stroke:none"
         id="path190"
         inkscape:connector-curvature="0" /><path
         d="m 2581.47,837.813 c -9.97,-7.329 -16.28,-9.973 -24.01,-9.973 -16.68,0 -31.13,14.652 -32.56,32.965 h 64.51 c -0.61,25.847 -17.1,41.922 -43.35,41.922 -29.29,0 -49.24,-20.344 -49.24,-50.258 0,-27.68 17.7,-46.031 44.36,-46.031 19.34,0 35,8.382 48.23,25.472 z m -57.18,32.566 v 0 c 0,13.836 6.92,22.789 17.3,22.789 10.37,0 16.28,-8.145 16.28,-22.789 h -33.58"
         style="fill:#231f20;fill-opacity:1;fill-rule:nonzero;stroke:none"
         id="path192"
         inkscape:connector-curvature="0" /></g></g></svg>